<svg width="153" height="21" viewBox="0 0 153 21" fill="none" xmlns="http://www.w3.org/2000/svg">
<mask id="path-1-outside-1_20_2" maskUnits="userSpaceOnUse" x="0" y="0" width="153" height="21" fill="black">
<rect fill="white" width="153" height="21"/>
<path d="M9.152 18V15.096H2.12V12.144L9.752 2.544H13.664V11.448H15.056V15.096H13.664V18H9.152ZM6.464 11.64H9.944V7.44L6.464 11.64ZM15.7719 18V15.936C16.2199 15.088 16.7639 14.328 17.4039 13.656C18.0439 12.984 18.7559 12.296 19.5399 11.592C20.1959 11 20.7239 10.512 21.1239 10.128C21.5399 9.744 21.8439 9.384 22.0359 9.048C22.2439 8.696 22.3479 8.296 22.3479 7.848C22.3479 6.712 21.6039 6.144 20.1159 6.144C19.4279 6.144 18.7559 6.224 18.0999 6.384C17.4599 6.544 16.8519 6.744 16.2759 6.984V3.144C16.9319 2.888 17.6999 2.688 18.5799 2.544C19.4599 2.384 20.3479 2.304 21.2439 2.304C23.1639 2.304 24.5959 2.76 25.5399 3.672C26.4839 4.568 26.9559 5.776 26.9559 7.296C26.9559 8.016 26.8679 8.64 26.6919 9.168C26.5319 9.68 26.2759 10.152 25.9239 10.584C25.5719 11.016 25.1159 11.48 24.5559 11.976C24.0599 12.408 23.5719 12.84 23.0919 13.272C22.6119 13.704 22.2279 14.128 21.9399 14.544H27.0999V18H15.7719ZM33.7128 18V2.544H42.2088C43.7768 2.544 44.9688 2.912 45.7848 3.648C46.6008 4.384 47.0088 5.44 47.0088 6.816C47.0088 7.616 46.8568 8.288 46.5528 8.832C46.2648 9.376 45.8808 9.808 45.4008 10.128C46.0568 10.384 46.5768 10.76 46.9608 11.256C47.3608 11.736 47.5608 12.456 47.5608 13.416C47.5608 14.872 47.1128 16 46.2168 16.8C45.3208 17.6 44.0488 18 42.4008 18H33.7128ZM38.0568 8.712H40.9848C42.0888 8.712 42.6408 8.216 42.6408 7.224C42.6408 6.728 42.5048 6.352 42.2328 6.096C41.9768 5.84 41.5208 5.712 40.8648 5.712H38.0568V8.712ZM38.0568 14.856H41.1768C41.7848 14.856 42.2328 14.728 42.5208 14.472C42.8088 14.216 42.9528 13.792 42.9528 13.2C42.9528 12.704 42.8088 12.328 42.5208 12.072C42.2328 11.816 41.7528 11.688 41.0808 11.688H38.0568V14.856ZM49.2519 18V2.544H57.2919C58.5559 2.544 59.5879 2.776 60.3879 3.24C61.2039 3.704 61.8119 4.352 62.2119 5.184C62.6119 6 62.8119 6.952 62.8119 8.04C62.8119 9.08 62.5479 10 62.0199 10.8C61.5079 11.584 60.8199 12.184 59.9559 12.6C60.1319 12.744 60.2839 12.92 60.4119 13.128C60.5399 13.32 60.6839 13.592 60.8439 13.944L62.6199 18H57.9159L56.2839 14.28C56.1559 13.992 55.9959 13.792 55.8039 13.68C55.6279 13.552 55.3719 13.488 55.0359 13.488H53.7639V18H49.2519ZM53.7639 10.032H56.1399C56.7959 10.032 57.2999 9.864 57.6519 9.528C58.0199 9.176 58.2039 8.68 58.2039 8.04C58.2039 6.68 57.5639 6 56.2839 6H53.7639V10.032ZM71.5507 18.24C68.9907 18.24 67.0307 17.616 65.6707 16.368C64.3267 15.12 63.6547 13.104 63.6547 10.32C63.6547 8.4 63.9587 6.856 64.5667 5.688C65.1747 4.504 66.0627 3.648 67.2307 3.12C68.4147 2.576 69.8547 2.304 71.5507 2.304C73.2467 2.304 74.6787 2.576 75.8467 3.12C77.0307 3.648 77.9267 4.504 78.5347 5.688C79.1427 6.856 79.4467 8.4 79.4467 10.32C79.4467 13.104 78.7667 15.12 77.4067 16.368C76.0467 17.616 74.0947 18.24 71.5507 18.24ZM71.5507 14.4C72.7027 14.4 73.5347 14.08 74.0467 13.44C74.5747 12.784 74.8387 11.744 74.8387 10.32C74.8387 8.8 74.5747 7.728 74.0467 7.104C73.5347 6.464 72.7027 6.144 71.5507 6.144C70.3987 6.144 69.5587 6.464 69.0307 7.104C68.5187 7.728 68.2627 8.8 68.2627 10.32C68.2627 11.744 68.5187 12.784 69.0307 13.44C69.5587 14.08 70.3987 14.4 71.5507 14.4ZM84.2765 18V5.904H79.9325V2.544H93.1325V5.904H88.7885V18H84.2765ZM94.3222 18V2.544H98.8342V8.304H104.162V2.544H108.674V18H104.162V12.24H98.8342V18H94.3222ZM110.846 18V2.544H122.558V6H115.358V8.52H121.67V12.024H115.358V14.544H122.558V18H110.846ZM123.994 18V2.544H132.034C133.298 2.544 134.33 2.776 135.13 3.24C135.946 3.704 136.554 4.352 136.954 5.184C137.354 6 137.554 6.952 137.554 8.04C137.554 9.08 137.29 10 136.762 10.8C136.25 11.584 135.562 12.184 134.698 12.6C134.874 12.744 135.026 12.92 135.154 13.128C135.282 13.32 135.426 13.592 135.586 13.944L137.362 18H132.658L131.026 14.28C130.898 13.992 130.738 13.792 130.546 13.68C130.37 13.552 130.114 13.488 129.778 13.488H128.506V18H123.994ZM128.506 10.032H130.882C131.538 10.032 132.042 9.864 132.394 9.528C132.762 9.176 132.946 8.68 132.946 8.04C132.946 6.68 132.306 6 131.026 6H128.506V10.032ZM144.292 18.24C143.252 18.24 142.268 18.16 141.34 18C140.412 17.824 139.62 17.584 138.964 17.28V13.56C139.684 13.896 140.484 14.168 141.364 14.376C142.244 14.584 143.068 14.688 143.836 14.688C144.636 14.688 145.236 14.624 145.636 14.496C146.052 14.352 146.26 14.04 146.26 13.56C146.26 13.224 146.14 12.96 145.9 12.768C145.676 12.576 145.316 12.4 144.82 12.24C144.34 12.08 143.708 11.88 142.924 11.64C141.884 11.304 141.06 10.936 140.452 10.536C139.844 10.136 139.404 9.648 139.132 9.072C138.876 8.496 138.748 7.792 138.748 6.96C138.748 5.44 139.284 4.288 140.356 3.504C141.444 2.704 143.052 2.304 145.18 2.304C146.028 2.304 146.9 2.376 147.796 2.52C148.708 2.664 149.444 2.824 150.004 3V6.744C149.252 6.44 148.532 6.224 147.844 6.096C147.156 5.968 146.508 5.904 145.9 5.904C145.196 5.904 144.596 5.96 144.1 6.072C143.604 6.184 143.356 6.472 143.356 6.936C143.356 7.336 143.564 7.632 143.98 7.824C144.412 8 145.172 8.232 146.26 8.52C147.524 8.856 148.484 9.264 149.14 9.744C149.812 10.224 150.268 10.784 150.508 11.424C150.748 12.048 150.868 12.76 150.868 13.56C150.868 14.968 150.324 16.104 149.236 16.968C148.148 17.816 146.5 18.24 144.292 18.24Z"/>
</mask>
<path d="M9.152 18V15.096H2.12V12.144L9.752 2.544H13.664V11.448H15.056V15.096H13.664V18H9.152ZM6.464 11.64H9.944V7.44L6.464 11.64ZM15.7719 18V15.936C16.2199 15.088 16.7639 14.328 17.4039 13.656C18.0439 12.984 18.7559 12.296 19.5399 11.592C20.1959 11 20.7239 10.512 21.1239 10.128C21.5399 9.744 21.8439 9.384 22.0359 9.048C22.2439 8.696 22.3479 8.296 22.3479 7.848C22.3479 6.712 21.6039 6.144 20.1159 6.144C19.4279 6.144 18.7559 6.224 18.0999 6.384C17.4599 6.544 16.8519 6.744 16.2759 6.984V3.144C16.9319 2.888 17.6999 2.688 18.5799 2.544C19.4599 2.384 20.3479 2.304 21.2439 2.304C23.1639 2.304 24.5959 2.76 25.5399 3.672C26.4839 4.568 26.9559 5.776 26.9559 7.296C26.9559 8.016 26.8679 8.64 26.6919 9.168C26.5319 9.68 26.2759 10.152 25.9239 10.584C25.5719 11.016 25.1159 11.48 24.5559 11.976C24.0599 12.408 23.5719 12.84 23.0919 13.272C22.6119 13.704 22.2279 14.128 21.9399 14.544H27.0999V18H15.7719ZM33.7128 18V2.544H42.2088C43.7768 2.544 44.9688 2.912 45.7848 3.648C46.6008 4.384 47.0088 5.44 47.0088 6.816C47.0088 7.616 46.8568 8.288 46.5528 8.832C46.2648 9.376 45.8808 9.808 45.4008 10.128C46.0568 10.384 46.5768 10.76 46.9608 11.256C47.3608 11.736 47.5608 12.456 47.5608 13.416C47.5608 14.872 47.1128 16 46.2168 16.8C45.3208 17.6 44.0488 18 42.4008 18H33.7128ZM38.0568 8.712H40.9848C42.0888 8.712 42.6408 8.216 42.6408 7.224C42.6408 6.728 42.5048 6.352 42.2328 6.096C41.9768 5.84 41.5208 5.712 40.8648 5.712H38.0568V8.712ZM38.0568 14.856H41.1768C41.7848 14.856 42.2328 14.728 42.5208 14.472C42.8088 14.216 42.9528 13.792 42.9528 13.2C42.9528 12.704 42.8088 12.328 42.5208 12.072C42.2328 11.816 41.7528 11.688 41.0808 11.688H38.0568V14.856ZM49.2519 18V2.544H57.2919C58.5559 2.544 59.5879 2.776 60.3879 3.24C61.2039 3.704 61.8119 4.352 62.2119 5.184C62.6119 6 62.8119 6.952 62.8119 8.04C62.8119 9.08 62.5479 10 62.0199 10.8C61.5079 11.584 60.8199 12.184 59.9559 12.6C60.1319 12.744 60.2839 12.92 60.4119 13.128C60.5399 13.32 60.6839 13.592 60.8439 13.944L62.6199 18H57.9159L56.2839 14.28C56.1559 13.992 55.9959 13.792 55.8039 13.68C55.6279 13.552 55.3719 13.488 55.0359 13.488H53.7639V18H49.2519ZM53.7639 10.032H56.1399C56.7959 10.032 57.2999 9.864 57.6519 9.528C58.0199 9.176 58.2039 8.68 58.2039 8.04C58.2039 6.68 57.5639 6 56.2839 6H53.7639V10.032ZM71.5507 18.24C68.9907 18.24 67.0307 17.616 65.6707 16.368C64.3267 15.12 63.6547 13.104 63.6547 10.32C63.6547 8.4 63.9587 6.856 64.5667 5.688C65.1747 4.504 66.0627 3.648 67.2307 3.12C68.4147 2.576 69.8547 2.304 71.5507 2.304C73.2467 2.304 74.6787 2.576 75.8467 3.12C77.0307 3.648 77.9267 4.504 78.5347 5.688C79.1427 6.856 79.4467 8.4 79.4467 10.32C79.4467 13.104 78.7667 15.12 77.4067 16.368C76.0467 17.616 74.0947 18.24 71.5507 18.24ZM71.5507 14.4C72.7027 14.4 73.5347 14.08 74.0467 13.44C74.5747 12.784 74.8387 11.744 74.8387 10.32C74.8387 8.8 74.5747 7.728 74.0467 7.104C73.5347 6.464 72.7027 6.144 71.5507 6.144C70.3987 6.144 69.5587 6.464 69.0307 7.104C68.5187 7.728 68.2627 8.8 68.2627 10.32C68.2627 11.744 68.5187 12.784 69.0307 13.44C69.5587 14.08 70.3987 14.4 71.5507 14.4ZM84.2765 18V5.904H79.9325V2.544H93.1325V5.904H88.7885V18H84.2765ZM94.3222 18V2.544H98.8342V8.304H104.162V2.544H108.674V18H104.162V12.24H98.8342V18H94.3222ZM110.846 18V2.544H122.558V6H115.358V8.52H121.67V12.024H115.358V14.544H122.558V18H110.846ZM123.994 18V2.544H132.034C133.298 2.544 134.33 2.776 135.13 3.24C135.946 3.704 136.554 4.352 136.954 5.184C137.354 6 137.554 6.952 137.554 8.04C137.554 9.08 137.29 10 136.762 10.8C136.25 11.584 135.562 12.184 134.698 12.6C134.874 12.744 135.026 12.92 135.154 13.128C135.282 13.32 135.426 13.592 135.586 13.944L137.362 18H132.658L131.026 14.28C130.898 13.992 130.738 13.792 130.546 13.68C130.37 13.552 130.114 13.488 129.778 13.488H128.506V18H123.994ZM128.506 10.032H130.882C131.538 10.032 132.042 9.864 132.394 9.528C132.762 9.176 132.946 8.68 132.946 8.04C132.946 6.68 132.306 6 131.026 6H128.506V10.032ZM144.292 18.24C143.252 18.24 142.268 18.16 141.34 18C140.412 17.824 139.62 17.584 138.964 17.28V13.56C139.684 13.896 140.484 14.168 141.364 14.376C142.244 14.584 143.068 14.688 143.836 14.688C144.636 14.688 145.236 14.624 145.636 14.496C146.052 14.352 146.26 14.04 146.26 13.56C146.26 13.224 146.14 12.96 145.9 12.768C145.676 12.576 145.316 12.4 144.82 12.24C144.34 12.08 143.708 11.88 142.924 11.64C141.884 11.304 141.06 10.936 140.452 10.536C139.844 10.136 139.404 9.648 139.132 9.072C138.876 8.496 138.748 7.792 138.748 6.96C138.748 5.44 139.284 4.288 140.356 3.504C141.444 2.704 143.052 2.304 145.18 2.304C146.028 2.304 146.9 2.376 147.796 2.52C148.708 2.664 149.444 2.824 150.004 3V6.744C149.252 6.44 148.532 6.224 147.844 6.096C147.156 5.968 146.508 5.904 145.9 5.904C145.196 5.904 144.596 5.96 144.1 6.072C143.604 6.184 143.356 6.472 143.356 6.936C143.356 7.336 143.564 7.632 143.98 7.824C144.412 8 145.172 8.232 146.26 8.52C147.524 8.856 148.484 9.264 149.14 9.744C149.812 10.224 150.268 10.784 150.508 11.424C150.748 12.048 150.868 12.76 150.868 13.56C150.868 14.968 150.324 16.104 149.236 16.968C148.148 17.816 146.5 18.24 144.292 18.24Z" fill="url(#paint0_linear_20_2)"/>
<path d="M9.152 18H7.152V20H9.152V18ZM9.152 15.096H11.152V13.096H9.152V15.096ZM2.12 15.096H0.12V17.096H2.12V15.096ZM2.12 12.144L0.554451 10.8994L0.12 11.4459V12.144H2.12ZM9.752 2.544V0.543999H8.78699L8.18645 1.29939L9.752 2.544ZM13.664 2.544H15.664V0.543999H13.664V2.544ZM13.664 11.448H11.664V13.448H13.664V11.448ZM15.056 11.448H17.056V9.448H15.056V11.448ZM15.056 15.096V17.096H17.056V15.096H15.056ZM13.664 15.096V13.096H11.664V15.096H13.664ZM13.664 18V20H15.664V18H13.664ZM6.464 11.64L4.92396 10.364L2.20953 13.64H6.464V11.64ZM9.944 11.64V13.64H11.944V11.64H9.944ZM9.944 7.44H11.944V1.8915L8.40396 6.16396L9.944 7.44ZM9.152 18H11.152V15.096H9.152H7.152V18H9.152ZM9.152 15.096V13.096H2.12V15.096V17.096H9.152V15.096ZM2.12 15.096H4.12V12.144H2.12H0.12V15.096H2.12ZM2.12 12.144L3.68555 13.3886L11.3175 3.78861L9.752 2.544L8.18645 1.29939L0.554451 10.8994L2.12 12.144ZM9.752 2.544V4.544H13.664V2.544V0.543999H9.752V2.544ZM13.664 2.544H11.664V11.448H13.664H15.664V2.544H13.664ZM13.664 11.448V13.448H15.056V11.448V9.448H13.664V11.448ZM15.056 11.448H13.056V15.096H15.056H17.056V11.448H15.056ZM15.056 15.096V13.096H13.664V15.096V17.096H15.056V15.096ZM13.664 15.096H11.664V18H13.664H15.664V15.096H13.664ZM13.664 18V16H9.152V18V20H13.664V18ZM6.464 11.64V13.64H9.944V11.64V9.64H6.464V11.64ZM9.944 11.64H11.944V7.44H9.944H7.944V11.64H9.944ZM9.944 7.44L8.40396 6.16396L4.92396 10.364L6.464 11.64L8.00404 12.916L11.484 8.71604L9.944 7.44ZM15.7719 18H13.7719V20H15.7719V18ZM15.7719 15.936L14.0035 15.0018L13.7719 15.4402V15.936H15.7719ZM19.5399 11.592L20.8761 13.0801L20.8798 13.0768L19.5399 11.592ZM21.1239 10.128L19.7673 8.65839L19.7529 8.67167L19.7388 8.68522L21.1239 10.128ZM22.0359 9.048L20.314 8.03054L20.3066 8.04308L20.2994 8.05572L22.0359 9.048ZM18.0999 6.384L17.626 4.44093L17.6148 4.44371L18.0999 6.384ZM16.2759 6.984H14.2759V9.984L17.0451 8.83015L16.2759 6.984ZM16.2759 3.144L15.5488 1.28084L14.2759 1.77759V3.144H16.2759ZM18.5799 2.544L18.9029 4.51775L18.9203 4.5149L18.9376 4.51174L18.5799 2.544ZM25.5399 3.672L24.1503 5.11038L24.1566 5.11653L24.163 5.12261L25.5399 3.672ZM26.6919 9.168L24.7945 8.53554L24.7885 8.55344L24.7829 8.57145L26.6919 9.168ZM25.9239 10.584L24.3734 9.32065L24.3734 9.32065L25.9239 10.584ZM24.5559 11.976L25.8694 13.4842L25.8757 13.4787L25.8819 13.4732L24.5559 11.976ZM23.0919 13.272L21.7539 11.7854L21.7539 11.7854L23.0919 13.272ZM21.9399 14.544L20.2955 13.4056L18.1227 16.544H21.9399V14.544ZM27.0999 14.544H29.0999V12.544H27.0999V14.544ZM27.0999 18V20H29.0999V18H27.0999ZM15.7719 18H17.7719V15.936H15.7719H13.7719V18H15.7719ZM15.7719 15.936L17.5403 16.8702C17.9054 16.1791 18.343 15.5699 18.8522 15.0353L17.4039 13.656L15.9556 12.2767C15.1848 13.0861 14.5344 13.9969 14.0035 15.0018L15.7719 15.936ZM17.4039 13.656L18.8522 15.0353C19.4518 14.4057 20.1258 13.7539 20.8761 13.0801L19.5399 11.592L18.2036 10.1039C17.386 10.8381 16.6359 11.5623 15.9556 12.2767L17.4039 13.656ZM19.5399 11.592L20.8798 13.0768C21.5433 12.478 22.0881 11.9748 22.5089 11.5708L21.1239 10.128L19.7388 8.68522C19.3597 9.04922 18.8485 9.52196 18.1999 10.1072L19.5399 11.592ZM21.1239 10.128L22.4804 11.5976C22.9839 11.1329 23.4437 10.6154 23.7724 10.0403L22.0359 9.048L20.2994 8.05572C20.244 8.15258 20.0959 8.35509 19.7673 8.65839L21.1239 10.128ZM22.0359 9.048L23.7577 10.0655C24.165 9.37627 24.3479 8.61863 24.3479 7.848H22.3479H20.3479C20.3479 7.97337 20.3228 8.01573 20.314 8.03054L22.0359 9.048ZM22.3479 7.848H24.3479C24.3479 6.80521 23.9784 5.7246 23.0035 4.98031C22.1307 4.31396 21.0578 4.144 20.1159 4.144V6.144V8.144C20.3672 8.144 20.5203 8.16865 20.5991 8.18872C20.6754 8.20814 20.6477 8.21423 20.5762 8.15969C20.5401 8.13209 20.4997 8.0941 20.4615 8.04546C20.4233 7.99677 20.3949 7.94732 20.3755 7.90278C20.3367 7.81392 20.3479 7.77978 20.3479 7.848H22.3479ZM20.1159 6.144V4.144C19.2712 4.144 18.44 4.24241 17.626 4.44096L18.0999 6.384L18.5738 8.32704C19.0717 8.20559 19.5845 8.144 20.1159 8.144V6.144ZM18.0999 6.384L17.6148 4.44371C16.8834 4.62658 16.18 4.8573 15.5066 5.13785L16.2759 6.984L17.0451 8.83015C17.5238 8.6307 18.0364 8.46142 18.5849 8.32428L18.0999 6.384ZM16.2759 6.984H18.2759V3.144H16.2759H14.2759V6.984H16.2759ZM16.2759 3.144L17.003 5.00715C17.4994 4.81342 18.1264 4.64481 18.9029 4.51775L18.5799 2.544L18.2569 0.57025C17.2734 0.731191 16.3643 0.962579 15.5488 1.28084L16.2759 3.144ZM18.5799 2.544L18.9376 4.51174C19.6994 4.37324 20.4676 4.304 21.2439 4.304V2.304V0.303999C20.2281 0.303999 19.2204 0.394758 18.2221 0.576259L18.5799 2.544ZM21.2439 2.304V4.304C22.8836 4.304 23.7211 4.69577 24.1503 5.11038L25.5399 3.672L26.9295 2.23362C25.4707 0.824229 23.4441 0.303999 21.2439 0.303999V2.304ZM25.5399 3.672L24.163 5.12261C24.6419 5.57714 24.9559 6.22431 24.9559 7.296H26.9559H28.9559C28.9559 5.32769 28.3259 3.55886 26.9167 2.22139L25.5399 3.672ZM26.9559 7.296H24.9559C24.9559 7.86074 24.8859 8.26131 24.7945 8.53554L26.6919 9.168L28.5892 9.80046C28.8498 9.01869 28.9559 8.17126 28.9559 7.296H26.9559ZM26.6919 9.168L24.7829 8.57145C24.7018 8.83096 24.5709 9.07827 24.3734 9.32065L25.9239 10.584L27.4743 11.8473C27.9808 11.2257 28.3619 10.529 28.6008 9.76455L26.6919 9.168ZM25.9239 10.584L24.3734 9.32065C24.1084 9.64592 23.7343 10.0319 23.2298 10.4788L24.5559 11.976L25.8819 13.4732C26.4974 12.9281 27.0354 12.3861 27.4743 11.8473L25.9239 10.584ZM24.5559 11.976L23.2423 10.4678C22.7383 10.9068 22.2422 11.346 21.7539 11.7854L23.0919 13.272L24.4298 14.7586C24.9016 14.334 25.3815 13.9092 25.8694 13.4842L24.5559 11.976ZM23.0919 13.272L21.7539 11.7854C21.1886 12.2942 20.6921 12.8327 20.2955 13.4056L21.9399 14.544L23.5843 15.6824C23.7636 15.4233 24.0351 15.1138 24.4298 14.7586L23.0919 13.272ZM21.9399 14.544V16.544H27.0999V14.544V12.544H21.9399V14.544ZM27.0999 14.544H25.0999V18H27.0999H29.0999V14.544H27.0999ZM27.0999 18V16H15.7719V18V20H27.0999V18ZM33.7128 18H31.7128V20H33.7128V18ZM33.7128 2.544V0.543999H31.7128V2.544H33.7128ZM45.7848 3.648L47.1244 2.16286L47.1244 2.16286L45.7848 3.648ZM46.5528 8.832L44.8069 7.85636L44.7959 7.87617L44.7852 7.89622L46.5528 8.832ZM45.4008 10.128L44.2914 8.4639L41.0952 10.5947L44.6737 11.9912L45.4008 10.128ZM46.9608 11.256L45.3794 12.4803L45.4014 12.5088L45.4244 12.5364L46.9608 11.256ZM38.0568 8.712H36.0568V10.712H38.0568V8.712ZM42.2328 6.096L40.8186 7.51021L40.84 7.53164L40.8621 7.5524L42.2328 6.096ZM38.0568 5.712V3.712H36.0568V5.712H38.0568ZM38.0568 14.856H36.0568V16.856H38.0568V14.856ZM42.5208 14.472L43.8495 15.9668L43.8495 15.9668L42.5208 14.472ZM42.5208 12.072L43.8495 10.5772L43.8495 10.5772L42.5208 12.072ZM38.0568 11.688V9.688H36.0568V11.688H38.0568ZM33.7128 18H35.7128V2.544H33.7128H31.7128V18H33.7128ZM33.7128 2.544V4.544H42.2088V2.544V0.543999H33.7128V2.544ZM42.2088 2.544V4.544C43.4916 4.544 44.1273 4.84629 44.4453 5.13314L45.7848 3.648L47.1244 2.16286C45.8104 0.977705 44.062 0.543999 42.2088 0.543999V2.544ZM45.7848 3.648L44.4453 5.13314C44.7391 5.39813 45.0088 5.85295 45.0088 6.816H47.0088H49.0088C49.0088 5.02705 48.4626 3.36987 47.1244 2.16286L45.7848 3.648ZM47.0088 6.816H45.0088C45.0088 7.36908 44.9035 7.68351 44.8069 7.85636L46.5528 8.832L48.2987 9.80764C48.8101 8.89249 49.0088 7.86292 49.0088 6.816H47.0088ZM46.5528 8.832L44.7852 7.89622C44.642 8.16681 44.4764 8.34054 44.2914 8.4639L45.4008 10.128L46.5102 11.7921C47.2852 11.2755 47.8876 10.5852 48.3204 9.76777L46.5528 8.832ZM45.4008 10.128L44.6737 11.9912C45.0347 12.132 45.2434 12.3047 45.3794 12.4803L46.9608 11.256L48.5423 10.0317C47.9103 9.21534 47.0789 8.63596 46.1279 8.26484L45.4008 10.128ZM46.9608 11.256L45.4244 12.5364C45.4009 12.5082 45.5608 12.6845 45.5608 13.416H47.5608H49.5608C49.5608 12.2275 49.3208 10.9638 48.4973 9.97563L46.9608 11.256ZM47.5608 13.416H45.5608C45.5608 14.4336 45.2668 14.9671 44.8848 15.3081L46.2168 16.8L47.5488 18.2919C48.9588 17.0329 49.5608 15.3104 49.5608 13.416H47.5608ZM46.2168 16.8L44.8848 15.3081C44.4725 15.6763 43.7413 16 42.4008 16V18V20C44.3564 20 46.1691 19.5237 47.5488 18.2919L46.2168 16.8ZM42.4008 18V16H33.7128V18V20H42.4008V18ZM38.0568 8.712V10.712H40.9848V8.712V6.712H38.0568V8.712ZM40.9848 8.712V10.712C41.7954 10.712 42.7769 10.5345 43.5636 9.82766C44.3909 9.08423 44.6408 8.08686 44.6408 7.224H42.6408H40.6408C40.6408 7.2916 40.6308 7.26386 40.6622 7.17939C40.6978 7.08329 40.7705 6.95976 40.8901 6.85234C41.1248 6.64147 41.2782 6.712 40.9848 6.712V8.712ZM42.6408 7.224H44.6408C44.6408 6.36542 44.3966 5.38598 43.6035 4.6396L42.2328 6.096L40.8621 7.5524C40.7536 7.45029 40.6891 7.33612 40.6581 7.25027C40.6308 7.17482 40.6408 7.15429 40.6408 7.224H42.6408ZM42.2328 6.096L43.647 4.68179C42.8084 3.8432 41.6591 3.712 40.8648 3.712V5.712V7.712C40.965 7.712 41.0391 7.71695 41.0906 7.72288C41.1426 7.72886 41.1628 7.73485 41.1583 7.73358C41.1549 7.73261 40.9967 7.68828 40.8186 7.51021L42.2328 6.096ZM40.8648 5.712V3.712H38.0568V5.712V7.712H40.8648V5.712ZM38.0568 5.712H36.0568V8.712H38.0568H40.0568V5.712H38.0568ZM38.0568 14.856V16.856H41.1768V14.856V12.856H38.0568V14.856ZM41.1768 14.856V16.856C42.0053 16.856 43.0346 16.6912 43.8495 15.9668L42.5208 14.472L41.1921 12.9772C41.3145 12.8684 41.4142 12.8384 41.4194 12.837C41.4215 12.8363 41.4041 12.8415 41.3622 12.8465C41.3203 12.8516 41.2595 12.856 41.1768 12.856V14.856ZM42.5208 14.472L43.8495 15.9668C44.7493 15.1671 44.9528 14.0578 44.9528 13.2H42.9528H40.9528C40.9528 13.3434 40.9342 13.3685 40.951 13.3188C40.9722 13.2565 41.0379 13.1143 41.1921 12.9772L42.5208 14.472ZM42.9528 13.2H44.9528C44.9528 12.3076 44.6798 11.3152 43.8495 10.5772L42.5208 12.072L41.1921 13.5668C41.0857 13.4723 41.0144 13.3587 40.9771 13.2613C40.944 13.1748 40.9528 13.1417 40.9528 13.2H42.9528ZM42.5208 12.072L43.8495 10.5772C43.0064 9.82769 41.9106 9.688 41.0808 9.688V11.688V13.688C41.1864 13.688 41.2677 13.6931 41.328 13.6998C41.3885 13.7065 41.4205 13.7141 41.4295 13.7165C41.4523 13.7226 41.3389 13.6973 41.1921 13.5668L42.5208 12.072ZM41.0808 11.688V9.688H38.0568V11.688V13.688H41.0808V11.688ZM38.0568 11.688H36.0568V14.856H38.0568H40.0568V11.688H38.0568ZM49.2519 18H47.2519V20H49.2519V18ZM49.2519 2.544V0.543999H47.2519V2.544H49.2519ZM60.3879 3.24L59.3844 4.97006L59.3918 4.97435L59.3993 4.97858L60.3879 3.24ZM62.2119 5.184L60.4094 6.05059L60.4127 6.05746L60.416 6.06431L62.2119 5.184ZM62.0199 10.8L60.3506 9.6983L60.3453 9.70642L62.0199 10.8ZM59.9559 12.6L59.0882 10.798L56.2596 12.1599L58.6894 14.1479L59.9559 12.6ZM60.4119 13.128L58.7086 14.1762L58.7276 14.2072L58.7478 14.2374L60.4119 13.128ZM60.8439 13.944L62.6759 13.1418L62.6704 13.1291L62.6646 13.1164L60.8439 13.944ZM62.6199 18V20H65.6789L64.4519 17.1978L62.6199 18ZM57.9159 18L56.0844 18.8035L56.6093 20H57.9159V18ZM56.2839 14.28L58.1154 13.4765L58.1115 13.4677L56.2839 14.28ZM55.8039 13.68L54.6275 15.2975L54.7091 15.3568L54.7961 15.4076L55.8039 13.68ZM53.7639 13.488V11.488H51.7639V13.488H53.7639ZM53.7639 18V20H55.7639V18H53.7639ZM53.7639 10.032H51.7639V12.032H53.7639V10.032ZM57.6519 9.528L59.0328 10.9747L59.0343 10.9733L57.6519 9.528ZM53.7639 6V4H51.7639V6H53.7639ZM49.2519 18H51.2519V2.544H49.2519H47.2519V18H49.2519ZM49.2519 2.544V4.544H57.2919V2.544V0.543999H49.2519V2.544ZM57.2919 2.544V4.544C58.3274 4.544 58.9811 4.73611 59.3844 4.97006L60.3879 3.24L61.3913 1.50994C60.1947 0.815885 58.7844 0.543999 57.2919 0.543999V2.544ZM60.3879 3.24L59.3993 4.97858C59.8679 5.24508 60.1888 5.59181 60.4094 6.05059L62.2119 5.184L64.0144 4.31741C63.4349 3.11219 62.5398 2.16292 61.3765 1.50142L60.3879 3.24ZM62.2119 5.184L60.416 6.06431C60.6578 6.55743 60.8119 7.19764 60.8119 8.04H62.8119H64.8119C64.8119 6.70636 64.566 5.44257 64.0077 4.30369L62.2119 5.184ZM62.8119 8.04H60.8119C60.8119 8.72307 60.6445 9.25309 60.3507 9.69832L62.0199 10.8L63.6891 11.9017C64.4512 10.7469 64.8119 9.43693 64.8119 8.04H62.8119ZM62.0199 10.8L60.3453 9.70642C60.0377 10.1775 59.632 10.5362 59.0882 10.798L59.9559 12.6L60.8235 14.402C62.0077 13.8318 62.9781 12.9905 63.6944 11.8936L62.0199 10.8ZM59.9559 12.6L58.6894 14.1479C58.6862 14.1453 58.6858 14.1445 58.6882 14.1472C58.6908 14.1502 58.6979 14.1589 58.7086 14.1762L60.4119 13.128L62.1152 12.0798C61.8791 11.6961 61.5831 11.3473 61.2224 11.0521L59.9559 12.6ZM60.4119 13.128L58.7478 14.2374C58.7896 14.3001 58.8822 14.4616 59.0231 14.7716L60.8439 13.944L62.6646 13.1164C62.4855 12.7224 62.2902 12.3399 62.076 12.0186L60.4119 13.128ZM60.8439 13.944L59.0118 14.7462L60.7878 18.8022L62.6199 18L64.4519 17.1978L62.6759 13.1418L60.8439 13.944ZM62.6199 18V16H57.9159V18V20H62.6199V18ZM57.9159 18L59.7474 17.1965L58.1154 13.4765L56.2839 14.28L54.4524 15.0835L56.0844 18.8035L57.9159 18ZM56.2839 14.28L58.1115 13.4677C57.8819 12.9511 57.4894 12.3478 56.8116 11.9524L55.8039 13.68L54.7961 15.4076C54.5024 15.2362 54.4299 15.0329 54.4563 15.0923L56.2839 14.28ZM55.8039 13.68L56.9802 12.0625C56.3219 11.5837 55.5793 11.488 55.0359 11.488V13.488V15.488C55.0825 15.488 55.0617 15.493 54.9948 15.4763C54.9253 15.4589 54.7861 15.4128 54.6275 15.2975L55.8039 13.68ZM55.0359 13.488V11.488H53.7639V13.488V15.488H55.0359V13.488ZM53.7639 13.488H51.7639V18H53.7639H55.7639V13.488H53.7639ZM53.7639 18V16H49.2519V18V20H53.7639V18ZM53.7639 10.032V12.032H56.1399V10.032V8.032H53.7639V10.032ZM56.1399 10.032V12.032C57.1273 12.032 58.1947 11.7747 59.0328 10.9747L57.6519 9.528L56.2709 8.08129C56.2962 8.05711 56.3221 8.03832 56.3446 8.02505C56.3667 8.01207 56.3794 8.00796 56.3774 8.00863C56.3707 8.01086 56.3014 8.032 56.1399 8.032V10.032ZM57.6519 9.528L59.0343 10.9733C59.8927 10.1522 60.2039 9.07703 60.2039 8.04H58.2039H56.2039C56.2039 8.1709 56.1849 8.21223 56.1907 8.19639C56.1939 8.18793 56.2019 8.1695 56.2172 8.14591C56.2327 8.12209 56.251 8.10038 56.2694 8.08272L57.6519 9.528ZM58.2039 8.04H60.2039C60.2039 7.08089 59.9805 5.98953 59.1803 5.13927C58.3586 4.26623 57.2642 4 56.2839 4V6V8C56.3561 8 56.4049 8.00484 56.4337 8.00923C56.4623 8.01357 56.4679 8.01692 56.4562 8.01275C56.4437 8.00833 56.4156 7.9968 56.3788 7.97333C56.3413 7.94947 56.3028 7.91828 56.2675 7.88073C56.2323 7.84337 56.2079 7.80781 56.1924 7.78031C56.1773 7.75359 56.1736 7.7399 56.1756 7.74618C56.1777 7.75297 56.185 7.77873 56.1917 7.82838C56.1984 7.87811 56.2039 7.94766 56.2039 8.04H58.2039ZM56.2839 6V4H53.7639V6V8H56.2839V6ZM53.7639 6H51.7639V10.032H53.7639H55.7639V6H53.7639ZM65.6707 16.368L64.3098 17.8336L64.3185 17.8416L65.6707 16.368ZM64.5667 5.688L66.3408 6.61148L66.3458 6.60161L64.5667 5.688ZM67.2307 3.12L68.0545 4.94247L68.0657 4.93735L67.2307 3.12ZM75.8467 3.12L75.0023 4.933L75.0171 4.93992L75.0321 4.9466L75.8467 3.12ZM78.5347 5.688L76.7555 6.60162L76.7607 6.61147L78.5347 5.688ZM77.4067 16.368L78.7589 17.8416L78.7589 17.8416L77.4067 16.368ZM74.0467 13.44L72.4887 12.186L72.485 12.1906L74.0467 13.44ZM74.0467 7.104L72.485 8.35339L72.5021 8.37488L72.5199 8.39588L74.0467 7.104ZM69.0307 7.104L67.4879 5.83123L67.4845 5.83537L69.0307 7.104ZM69.0307 13.44L67.4541 14.6705L67.4707 14.6919L67.4879 14.7128L69.0307 13.44ZM71.5507 18.24V16.24C69.2966 16.24 67.8919 15.6919 67.0229 14.8944L65.6707 16.368L64.3185 17.8416C66.1694 19.5401 68.6847 20.24 71.5507 20.24V18.24ZM65.6707 16.368L67.0316 14.9024C66.266 14.1915 65.6547 12.8344 65.6547 10.32H63.6547H61.6547C61.6547 13.3736 62.3873 16.0485 64.3098 17.8336L65.6707 16.368ZM63.6547 10.32H65.6547C65.6547 8.5848 65.9335 7.39368 66.3407 6.61147L64.5667 5.688L62.7927 4.76453C61.9838 6.31832 61.6547 8.2152 61.6547 10.32H63.6547ZM64.5667 5.688L66.3458 6.60161C66.7558 5.80316 67.3153 5.27661 68.0545 4.94244L67.2307 3.12L66.4068 1.29756C64.8101 2.01939 63.5935 3.20484 62.7876 4.77439L64.5667 5.688ZM67.2307 3.12L68.0657 4.93735C68.9214 4.54421 70.0596 4.304 71.5507 4.304V2.304V0.303999C69.6498 0.303999 67.908 0.607789 66.3957 1.30265L67.2307 3.12ZM71.5507 2.304V4.304C73.0431 4.304 74.1685 4.54465 75.0023 4.933L75.8467 3.12L76.6911 1.307C75.1889 0.607349 73.4502 0.303999 71.5507 0.303999V2.304ZM75.8467 3.12L75.0321 4.9466C75.7881 5.28373 76.3497 5.8112 76.7556 6.60161L78.5347 5.688L80.3138 4.77439C79.5037 3.1968 78.2733 2.01227 76.6613 1.2934L75.8467 3.12ZM78.5347 5.688L76.7607 6.61147C77.1678 7.39368 77.4467 8.5848 77.4467 10.32H79.4467H81.4467C81.4467 8.2152 81.1175 6.31832 80.3087 4.76453L78.5347 5.688ZM79.4467 10.32H77.4467C77.4467 12.8283 76.8305 14.1823 76.0545 14.8944L77.4067 16.368L78.7589 17.8416C80.7029 16.0577 81.4467 13.3797 81.4467 10.32H79.4467ZM77.4067 16.368L76.0545 14.8944C75.1833 15.6938 73.7848 16.24 71.5507 16.24V18.24V20.24C74.4046 20.24 76.91 19.5382 78.7589 17.8416L77.4067 16.368ZM71.5507 14.4V16.4C73.0512 16.4 74.5802 15.9747 75.6084 14.6894L74.0467 13.44L72.485 12.1906C72.4697 12.2097 72.4356 12.2491 72.3207 12.2933C72.1899 12.3436 71.9495 12.4 71.5507 12.4V14.4ZM74.0467 13.44L75.6047 14.694C76.5581 13.5096 76.8387 11.9127 76.8387 10.32H74.8387H72.8387C72.8387 11.5753 72.5913 12.0584 72.4887 12.186L74.0467 13.44ZM74.8387 10.32H76.8387C76.8387 8.68435 76.5777 6.99895 75.5735 5.81212L74.0467 7.104L72.5199 8.39588C72.5717 8.45705 72.8387 8.91565 72.8387 10.32H74.8387ZM74.0467 7.104L75.6084 5.85461C74.5802 4.56929 73.0512 4.144 71.5507 4.144V6.144V8.144C71.9495 8.144 72.1899 8.20039 72.3207 8.25069C72.4356 8.29488 72.4697 8.33433 72.485 8.35339L74.0467 7.104ZM71.5507 6.144V4.144C70.0453 4.144 68.5276 4.57099 67.4879 5.83123L69.0307 7.104L70.5734 8.37677C70.5897 8.35701 70.752 8.144 71.5507 8.144V6.144ZM69.0307 7.104L67.4845 5.83537C66.5133 7.0191 66.2627 8.69297 66.2627 10.32H68.2627H70.2627C70.2627 8.90702 70.5241 8.43689 70.5768 8.37263L69.0307 7.104ZM68.2627 10.32H66.2627C66.2627 11.9032 66.5322 13.4894 67.4541 14.6705L69.0307 13.44L70.6073 12.2095C70.5052 12.0786 70.2627 11.5848 70.2627 10.32H68.2627ZM69.0307 13.44L67.4879 14.7128C68.5276 15.973 70.0453 16.4 71.5507 16.4V14.4V12.4C70.752 12.4 70.5897 12.187 70.5734 12.1672L69.0307 13.44ZM84.2765 18H82.2765V20H84.2765V18ZM84.2765 5.904H86.2765V3.904H84.2765V5.904ZM79.9325 5.904H77.9325V7.904H79.9325V5.904ZM79.9325 2.544V0.543999H77.9325V2.544H79.9325ZM93.1325 2.544H95.1325V0.543999H93.1325V2.544ZM93.1325 5.904V7.904H95.1325V5.904H93.1325ZM88.7885 5.904V3.904H86.7885V5.904H88.7885ZM88.7885 18V20H90.7885V18H88.7885ZM84.2765 18H86.2765V5.904H84.2765H82.2765V18H84.2765ZM84.2765 5.904V3.904H79.9325V5.904V7.904H84.2765V5.904ZM79.9325 5.904H81.9325V2.544H79.9325H77.9325V5.904H79.9325ZM79.9325 2.544V4.544H93.1325V2.544V0.543999H79.9325V2.544ZM93.1325 2.544H91.1325V5.904H93.1325H95.1325V2.544H93.1325ZM93.1325 5.904V3.904H88.7885V5.904V7.904H93.1325V5.904ZM88.7885 5.904H86.7885V18H88.7885H90.7885V5.904H88.7885ZM88.7885 18V16H84.2765V18V20H88.7885V18ZM94.3222 18H92.3222V20H94.3222V18ZM94.3222 2.544V0.543999H92.3222V2.544H94.3222ZM98.8342 2.544H100.834V0.543999H98.8342V2.544ZM98.8342 8.304H96.8342V10.304H98.8342V8.304ZM104.162 8.304V10.304H106.162V8.304H104.162ZM104.162 2.544V0.543999H102.162V2.544H104.162ZM108.674 2.544H110.674V0.543999H108.674V2.544ZM108.674 18V20H110.674V18H108.674ZM104.162 18H102.162V20H104.162V18ZM104.162 12.24H106.162V10.24H104.162V12.24ZM98.8342 12.24V10.24H96.8342V12.24H98.8342ZM98.8342 18V20H100.834V18H98.8342ZM94.3222 18H96.3222V2.544H94.3222H92.3222V18H94.3222ZM94.3222 2.544V4.544H98.8342V2.544V0.543999H94.3222V2.544ZM98.8342 2.544H96.8342V8.304H98.8342H100.834V2.544H98.8342ZM98.8342 8.304V10.304H104.162V8.304V6.304H98.8342V8.304ZM104.162 8.304H106.162V2.544H104.162H102.162V8.304H104.162ZM104.162 2.544V4.544H108.674V2.544V0.543999H104.162V2.544ZM108.674 2.544H106.674V18H108.674H110.674V2.544H108.674ZM108.674 18V16H104.162V18V20H108.674V18ZM104.162 18H106.162V12.24H104.162H102.162V18H104.162ZM104.162 12.24V10.24H98.8342V12.24V14.24H104.162V12.24ZM98.8342 12.24H96.8342V18H98.8342H100.834V12.24H98.8342ZM98.8342 18V16H94.3222V18V20H98.8342V18ZM110.846 18H108.846V20H110.846V18ZM110.846 2.544V0.543999H108.846V2.544H110.846ZM122.558 2.544H124.558V0.543999H122.558V2.544ZM122.558 6V8H124.558V6H122.558ZM115.358 6V4H113.358V6H115.358ZM115.358 8.52H113.358V10.52H115.358V8.52ZM121.67 8.52H123.67V6.52H121.67V8.52ZM121.67 12.024V14.024H123.67V12.024H121.67ZM115.358 12.024V10.024H113.358V12.024H115.358ZM115.358 14.544H113.358V16.544H115.358V14.544ZM122.558 14.544H124.558V12.544H122.558V14.544ZM122.558 18V20H124.558V18H122.558ZM110.846 18H112.846V2.544H110.846H108.846V18H110.846ZM110.846 2.544V4.544H122.558V2.544V0.543999H110.846V2.544ZM122.558 2.544H120.558V6H122.558H124.558V2.544H122.558ZM122.558 6V4H115.358V6V8H122.558V6ZM115.358 6H113.358V8.52H115.358H117.358V6H115.358ZM115.358 8.52V10.52H121.67V8.52V6.52H115.358V8.52ZM121.67 8.52H119.67V12.024H121.67H123.67V8.52H121.67ZM121.67 12.024V10.024H115.358V12.024V14.024H121.67V12.024ZM115.358 12.024H113.358V14.544H115.358H117.358V12.024H115.358ZM115.358 14.544V16.544H122.558V14.544V12.544H115.358V14.544ZM122.558 14.544H120.558V18H122.558H124.558V14.544H122.558ZM122.558 18V16H110.846V18V20H122.558V18ZM123.994 18H121.994V20H123.994V18ZM123.994 2.544V0.543999H121.994V2.544H123.994ZM135.13 3.24L134.127 4.97006L134.134 4.97435L134.141 4.97858L135.13 3.24ZM136.954 5.184L135.152 6.05059L135.155 6.05746L135.158 6.06431L136.954 5.184ZM136.762 10.8L135.093 9.6983L135.088 9.70642L136.762 10.8ZM134.698 12.6L133.83 10.798L131.002 12.1599L133.432 14.1479L134.698 12.6ZM135.154 13.128L133.451 14.1762L133.47 14.2072L133.49 14.2374L135.154 13.128ZM135.586 13.944L137.418 13.1418L137.413 13.1291L137.407 13.1164L135.586 13.944ZM137.362 18V20H140.421L139.194 17.1978L137.362 18ZM132.658 18L130.827 18.8035L131.351 20H132.658V18ZM131.026 14.28L132.858 13.4765L132.854 13.4677L131.026 14.28ZM130.546 13.68L129.37 15.2975L129.451 15.3568L129.538 15.4076L130.546 13.68ZM128.506 13.488V11.488H126.506V13.488H128.506ZM128.506 18V20H130.506V18H128.506ZM128.506 10.032H126.506V12.032H128.506V10.032ZM132.394 9.528L133.775 10.9747L133.777 10.9733L132.394 9.528ZM128.506 6V4H126.506V6H128.506ZM123.994 18H125.994V2.544H123.994H121.994V18H123.994ZM123.994 2.544V4.544H132.034V2.544V0.543999H123.994V2.544ZM132.034 2.544V4.544C133.07 4.544 133.723 4.73611 134.127 4.97006L135.13 3.24L136.134 1.50994C134.937 0.815885 133.527 0.543999 132.034 0.543999V2.544ZM135.13 3.24L134.141 4.97858C134.61 5.24508 134.931 5.59181 135.152 6.05059L136.954 5.184L138.757 4.31741C138.177 3.11219 137.282 2.16292 136.119 1.50142L135.13 3.24ZM136.954 5.184L135.158 6.06431C135.4 6.55743 135.554 7.19764 135.554 8.04H137.554H139.554C139.554 6.70636 139.308 5.44257 138.75 4.30369L136.954 5.184ZM137.554 8.04H135.554C135.554 8.72307 135.387 9.25309 135.093 9.69832L136.762 10.8L138.431 11.9017C139.193 10.7469 139.554 9.43693 139.554 8.04H137.554ZM136.762 10.8L135.088 9.70642C134.78 10.1775 134.374 10.5362 133.83 10.798L134.698 12.6L135.566 14.402C136.75 13.8318 137.72 12.9905 138.437 11.8936L136.762 10.8ZM134.698 12.6L133.432 14.1479C133.428 14.1453 133.428 14.1445 133.43 14.1472C133.433 14.1502 133.44 14.1589 133.451 14.1762L135.154 13.128L136.857 12.0798C136.621 11.6961 136.325 11.3473 135.965 11.0521L134.698 12.6ZM135.154 13.128L133.49 14.2374C133.532 14.3001 133.624 14.4616 133.765 14.7716L135.586 13.944L137.407 13.1164C137.228 12.7224 137.032 12.3399 136.818 12.0186L135.154 13.128ZM135.586 13.944L133.754 14.7462L135.53 18.8022L137.362 18L139.194 17.1978L137.418 13.1418L135.586 13.944ZM137.362 18V16H132.658V18V20H137.362V18ZM132.658 18L134.49 17.1965L132.858 13.4765L131.026 14.28L129.195 15.0835L130.827 18.8035L132.658 18ZM131.026 14.28L132.854 13.4677C132.624 12.9511 132.232 12.3478 131.554 11.9524L130.546 13.68L129.538 15.4076C129.245 15.2362 129.172 15.0329 129.198 15.0923L131.026 14.28ZM130.546 13.68L131.722 12.0625C131.064 11.5837 130.321 11.488 129.778 11.488V13.488V15.488C129.825 15.488 129.804 15.493 129.737 15.4763C129.668 15.4589 129.528 15.4128 129.37 15.2975L130.546 13.68ZM129.778 13.488V11.488H128.506V13.488V15.488H129.778V13.488ZM128.506 13.488H126.506V18H128.506H130.506V13.488H128.506ZM128.506 18V16H123.994V18V20H128.506V18ZM128.506 10.032V12.032H130.882V10.032V8.032H128.506V10.032ZM130.882 10.032V12.032C131.869 12.032 132.937 11.7747 133.775 10.9747L132.394 9.528L131.013 8.08129C131.038 8.05711 131.064 8.03832 131.087 8.02505C131.109 8.01207 131.122 8.00796 131.12 8.00863C131.113 8.01086 131.044 8.032 130.882 8.032V10.032ZM132.394 9.528L133.777 10.9733C134.635 10.1522 134.946 9.07703 134.946 8.04H132.946H130.946C130.946 8.1709 130.927 8.21223 130.933 8.19639C130.936 8.18793 130.944 8.1695 130.959 8.14591C130.975 8.12209 130.993 8.10038 131.012 8.08272L132.394 9.528ZM132.946 8.04H134.946C134.946 7.08089 134.723 5.98953 133.922 5.13927C133.101 4.26623 132.006 4 131.026 4V6V8C131.098 8 131.147 8.00484 131.176 8.00923C131.205 8.01357 131.21 8.01692 131.198 8.01275C131.186 8.00833 131.158 7.9968 131.121 7.97333C131.084 7.94947 131.045 7.91828 131.01 7.88073C130.975 7.84337 130.95 7.80781 130.935 7.78031C130.919 7.75359 130.916 7.7399 130.918 7.74618C130.92 7.75297 130.927 7.77873 130.934 7.82838C130.941 7.87811 130.946 7.94766 130.946 8.04H132.946ZM131.026 6V4H128.506V6V8H131.026V6ZM128.506 6H126.506V10.032H128.506H130.506V6H128.506ZM141.34 18L140.968 19.965L140.984 19.9681L141.001 19.9709L141.34 18ZM138.964 17.28H136.964V18.5575L138.124 19.0946L138.964 17.28ZM138.964 13.56L139.81 11.7476L136.964 10.4196V13.56H138.964ZM141.364 14.376L140.904 16.3224L140.904 16.3224L141.364 14.376ZM145.636 14.496L146.246 16.4008L146.268 16.3937L146.291 16.386L145.636 14.496ZM145.9 12.768L144.599 14.2865L144.625 14.3086L144.651 14.3297L145.9 12.768ZM144.82 12.24L144.188 14.1374L144.197 14.1404L144.206 14.1434L144.82 12.24ZM142.924 11.64L142.31 13.5431L142.324 13.5479L142.339 13.5524L142.924 11.64ZM140.452 10.536L139.353 12.2068L139.353 12.2068L140.452 10.536ZM139.132 9.072L137.305 9.88428L137.314 9.90525L137.324 9.92601L139.132 9.072ZM140.356 3.504L141.537 5.11835L141.541 5.1153L140.356 3.504ZM147.796 2.52L147.479 4.49467L147.485 4.49552L147.796 2.52ZM150.004 3H152.004V1.53212L150.604 1.09201L150.004 3ZM150.004 6.744L149.255 8.59822L152.004 9.70975V6.744H150.004ZM147.844 6.096L147.479 8.06226L147.479 8.06226L147.844 6.096ZM143.98 7.824L143.142 9.63992L143.184 9.659L143.226 9.67618L143.98 7.824ZM146.26 8.52L146.774 6.58712L146.772 6.58659L146.26 8.52ZM149.14 9.744L147.959 11.3581L147.969 11.3648L147.978 11.3715L149.14 9.744ZM150.508 11.424L148.636 12.1262L148.639 12.1341L148.642 12.142L150.508 11.424ZM149.236 16.968L150.466 18.5455L150.473 18.5399L150.48 18.5342L149.236 16.968ZM144.292 18.24V16.24C143.355 16.24 142.485 16.1678 141.68 16.0291L141.34 18L141.001 19.9709C142.052 20.1522 143.15 20.24 144.292 20.24V18.24ZM141.34 18L141.713 16.035C140.9 15.8809 140.275 15.6828 139.805 15.4654L138.964 17.28L138.124 19.0946C138.966 19.4852 139.924 19.7671 140.968 19.965L141.34 18ZM138.964 17.28H140.964V13.56H138.964H136.964V17.28H138.964ZM138.964 13.56L138.119 15.3724C138.978 15.7733 139.909 16.0872 140.904 16.3224L141.364 14.376L141.824 12.4296C141.059 12.2488 140.391 12.0187 139.81 11.7476L138.964 13.56ZM141.364 14.376L140.904 16.3224C141.909 16.5599 142.889 16.688 143.836 16.688V14.688V12.688C143.248 12.688 142.58 12.6081 141.824 12.4296L141.364 14.376ZM143.836 14.688V16.688C144.692 16.688 145.544 16.6256 146.246 16.4008L145.636 14.496L145.027 12.5912C144.929 12.6224 144.581 12.688 143.836 12.688V14.688ZM145.636 14.496L146.291 16.386C146.837 16.1968 147.382 15.8434 147.769 15.2634C148.145 14.698 148.26 14.0849 148.26 13.56H146.26H144.26C144.26 13.5151 144.271 13.298 144.44 13.0446C144.619 12.7766 144.852 12.6512 144.982 12.606L145.636 14.496ZM146.26 13.56H148.26C148.26 12.6812 147.913 11.8165 147.15 11.2063L145.9 12.768L144.651 14.3297C144.541 14.2414 144.428 14.1089 144.35 13.9376C144.274 13.7716 144.26 13.6325 144.26 13.56H146.26ZM145.9 12.768L147.202 11.2495C146.678 10.8001 146.019 10.5252 145.434 10.3366L144.82 12.24L144.206 14.1434C144.389 14.2024 144.51 14.2528 144.584 14.2888C144.662 14.327 144.652 14.3322 144.599 14.2865L145.9 12.768ZM144.82 12.24L145.453 10.3426C144.951 10.1753 144.301 9.96987 143.51 9.7276L142.924 11.64L142.339 13.5524C143.116 13.7901 143.73 13.9847 144.188 14.1374L144.82 12.24ZM142.924 11.64L143.539 9.73686C142.594 9.43143 141.954 9.13014 141.552 8.86517L140.452 10.536L139.353 12.2068C140.166 12.7419 141.175 13.1766 142.31 13.5431L142.924 11.64ZM140.452 10.536L141.552 8.86517C141.206 8.63773 141.035 8.41649 140.941 8.21799L139.132 9.072L137.324 9.92601C137.774 10.8795 138.483 11.6343 139.353 12.2068L140.452 10.536ZM139.132 9.072L140.96 8.25972C140.848 8.00729 140.748 7.59741 140.748 6.96H138.748H136.748C136.748 7.98659 136.905 8.98471 137.305 9.88428L139.132 9.072ZM138.748 6.96H140.748C140.748 5.97235 141.06 5.46741 141.537 5.11834L140.356 3.504L139.176 1.88966C137.509 3.10859 136.748 4.90765 136.748 6.96H138.748ZM140.356 3.504L141.541 5.1153C142.139 4.67584 143.251 4.304 145.18 4.304V2.304V0.303999C142.854 0.303999 140.75 0.732162 139.172 1.8927L140.356 3.504ZM145.18 2.304V4.304C145.915 4.304 146.681 4.36636 147.479 4.49466L147.796 2.52L148.114 0.545338C147.12 0.38564 146.142 0.303999 145.18 0.303999V2.304ZM147.796 2.52L147.485 4.49552C148.347 4.63178 148.976 4.77332 149.405 4.90799L150.004 3L150.604 1.09201C149.913 0.874682 149.069 0.696214 148.108 0.544473L147.796 2.52ZM150.004 3H148.004V6.744H150.004H152.004V3H150.004ZM150.004 6.744L150.754 4.88978C149.897 4.54342 149.048 4.28567 148.21 4.12974L147.844 6.096L147.479 8.06226C148.016 8.16233 148.608 8.33658 149.255 8.59822L150.004 6.744ZM147.844 6.096L148.21 4.12974C147.419 3.98258 146.648 3.904 145.9 3.904V5.904V7.904C146.369 7.904 146.894 7.95342 147.479 8.06226L147.844 6.096ZM145.9 5.904V3.904C145.1 3.904 144.344 3.96671 143.66 4.12112L144.1 6.072L144.541 8.02288C144.849 7.95329 145.293 7.904 145.9 7.904V5.904ZM144.1 6.072L143.66 4.12112C143.134 4.23996 142.512 4.50388 142.027 5.06695C141.525 5.64948 141.356 6.33516 141.356 6.936H143.356H145.356C145.356 7.07284 145.312 7.38252 145.058 7.67705C144.821 7.95212 144.571 8.01604 144.541 8.02288L144.1 6.072ZM143.356 6.936H141.356C141.356 7.50209 141.511 8.08774 141.876 8.60789C142.23 9.11165 142.698 9.43491 143.142 9.63992L143.98 7.824L144.819 6.00808C144.847 6.02109 145.003 6.10035 145.149 6.30811C145.306 6.53226 145.356 6.76991 145.356 6.936H143.356ZM143.98 7.824L143.226 9.67618C143.789 9.90564 144.661 10.1655 145.749 10.4534L146.26 8.52L146.772 6.58659C145.684 6.29855 145.036 6.09436 144.735 5.97181L143.98 7.824ZM146.26 8.52L145.747 10.4529C146.899 10.7591 147.589 11.087 147.959 11.3581L149.14 9.744L150.321 8.12994C149.38 7.44103 148.15 6.95285 146.774 6.58712L146.26 8.52ZM149.14 9.744L147.978 11.3715C148.395 11.6692 148.562 11.9298 148.636 12.1262L150.508 11.424L152.381 10.7218C151.975 9.63818 151.23 8.77878 150.303 8.11653L149.14 9.744ZM150.508 11.424L148.642 12.142C148.778 12.4967 148.868 12.9584 148.868 13.56H150.868H152.868C152.868 12.5616 152.719 11.5993 152.375 10.706L150.508 11.424ZM150.868 13.56H148.868C148.868 14.3675 148.595 14.9231 147.993 15.4018L149.236 16.968L150.48 18.5342C152.053 17.2849 152.868 15.5685 152.868 13.56H150.868ZM149.236 16.968L148.007 15.3905C147.426 15.8434 146.304 16.24 144.292 16.24V18.24V20.24C146.697 20.24 148.871 19.7886 150.466 18.5455L149.236 16.968Z" fill="white" mask="url(#path-1-outside-1_20_2)"/>
<defs>
<linearGradient id="paint0_linear_20_2" x1="2" y1="10" x2="152" y2="10" gradientUnits="userSpaceOnUse">
<stop stop-color="#0051BA"/>
<stop offset="0.783654" stop-color="#D90102"/>
</linearGradient>
</defs>
</svg>
